# xmcd CD database file
#
# Track frame offsets:
#	150
#	8872
#	30267
#	49133
#	70266
#	94986
#	112640
#	132938
#	154204
#	171046
#	188046
#	212305
#	237997
#
# Disc length: 3567 seconds
#
# Revision: 5
# Processed by: cddbd v1.5.2PL0 Copyright (c) Steve Scherf et al.
# Submitted via: CDex 1.70beta2
#
DISCID=9e0ded0d
DTITLE=SOUND HOLIC - 妖 -AYAKASHI-
DYEAR=0
DGENRE=東方アレンジ系
TTITLE0=千年桜妖
TTITLE1=Fantasia of Love -Mega Peer mix-
TTITLE2=Perfect Cherry Blossom\t
TTITLE3=the way we lost
TTITLE4=サクラ舞うあの場所へ
TTITLE5=TrUe CoLoR
TTITLE6=ネコミミ"舞"は～と
TTITLE7=シロノセカイ
TTITLE8=その魂、雪華の如く
TTITLE9=PRISM
TTITLE10=妖の華
TTITLE11=Phantasmagoria -弾幕結界-
TTITLE12=恋のごぉすと☆あんさんぶる -どきどき！ぱぁてぃみっくす-
EXTD=YEAR: 0
EXTT0=
EXTT1=
EXTT2=
EXTT3=
EXTT4=
EXTT5=
EXTT6=
EXTT7=
EXTT8=
EXTT9=
EXTT10=
EXTT11=
EXTT12=
PLAYORDER=
